<svg width="100" height="100" viewBox="0 0 100 100" fill="none" xmlns="http://www.w3.org/2000/svg">
<path d="M79.4869 20.5336C70.8119 11.8544 58.9786 7.47527 46.5536 8.47527C29.8494 9.81693 15.2078 21.4336 10.3078 37.4586C6.80777 48.9086 8.2786 60.8628 13.9786 70.7378L8.5786 88.6669C8.06194 90.3878 9.63277 92.0086 11.3703 91.5461L30.1369 86.5169C36.2161 89.8336 43.0578 91.5794 50.0244 91.5836H50.0411C67.5203 91.5836 83.6703 80.8919 89.2578 64.3294C94.6994 48.1794 90.6744 31.7336 79.4869 20.5336ZM70.4078 64.8086C69.5411 67.2378 65.2953 69.5794 63.3869 69.7503C61.4786 69.9253 59.6911 70.6128 50.9078 67.1503C40.3369 62.9836 33.6619 52.1461 33.1453 51.4544C32.6244 50.7586 28.8994 45.8169 28.8994 40.7003C28.8994 35.5836 31.5869 33.0669 32.5411 32.0294C33.4953 30.9878 34.6203 30.7294 35.3161 30.7294C36.0078 30.7294 36.7036 30.7294 37.3078 30.7544C38.0494 30.7836 38.8703 30.8211 39.6494 32.5503C40.5744 34.6086 42.5953 39.7503 42.8536 40.2711C43.1119 40.7919 43.2869 41.4003 42.9411 42.0919C42.5953 42.7836 42.4203 43.2169 41.9036 43.8253C41.3828 44.4336 40.8119 45.1794 40.3453 45.6461C39.8244 46.1628 39.2828 46.7294 39.8869 47.7669C40.4953 48.8086 42.5786 52.2128 45.6703 54.9669C49.6453 58.5086 52.9911 59.6044 54.0328 60.1294C55.0744 60.6503 55.6786 60.5628 56.2869 59.8669C56.8953 59.1753 58.8869 56.8336 59.5786 55.7919C60.2703 54.7503 60.9661 54.9253 61.9203 55.2711C62.8744 55.6169 67.9869 58.1336 69.0244 58.6544C70.0661 59.1753 70.7578 59.4336 71.0161 59.8669C71.2744 60.2961 71.2744 62.3794 70.4078 64.8086Z" fill="rgb(0,59,70)"/>
</svg>
