<svg width="100" height="100" viewBox="0 0 100 100" fill="none" xmlns="http://www.w3.org/2000/svg">
<path d="M92.2756 13.1037C90.7756 11.8317 88.4196 11.6497 85.9836 12.6277H85.9796C83.4176 13.6557 13.4576 43.6637 10.6096 44.8897C10.0916 45.0697 5.56762 46.7577 6.03362 50.5177C6.44962 53.9077 10.0856 55.3117 10.5296 55.4737L28.3156 61.5637C29.4956 65.4917 33.8456 79.9837 34.8076 83.0797C35.4076 85.0097 36.3856 87.5457 38.0996 88.0677C39.6036 88.6477 41.0996 88.1177 42.0676 87.3577L52.9416 77.2717L70.4956 90.9617L70.9136 91.2117C72.1056 91.7397 73.2476 92.0037 74.3376 92.0037C75.1796 92.0037 75.9876 91.8457 76.7596 91.5297C79.3896 90.4497 80.4416 87.9437 80.5516 87.6597L93.6636 19.5057C94.4636 15.8657 93.3516 14.0137 92.2756 13.1037ZM44.0016 63.9997L38.0016 79.9997L32.0016 59.9997L78.0016 25.9997L44.0016 63.9997Z" fill="white"/>
</svg>
