<svg width="100" height="100" viewBox="0 0 100 100" fill="none" xmlns="http://www.w3.org/2000/svg">
<path d="M50 4C24.636 4 4 24.636 4 50C4 75.364 24.636 96 50 96C75.366 96 96 75.364 96 50C96 24.636 75.366 4 50 4ZM69.946 59.07C74.42 63.042 75.35 64.46 75.502 64.702C77.356 67.642 73.446 68 73.446 68H65.206C65.206 68 63.2 68.022 61.486 66.886C58.692 65.056 55.766 61.508 53.71 62.124C51.984 62.64 52 64.972 52 66.966C52 67.68 51.386 68 50 68C48.614 68 48.038 68 47.424 68C42.91 68 38.012 66.48 33.126 61.374C26.214 54.156 20.152 39.616 20.152 39.616C20.152 39.616 19.794 38.884 20.184 38.438C20.626 37.938 21.828 38.002 21.828 38.002L29.818 38C29.818 38 30.57 38.142 31.11 38.522C31.556 38.834 31.804 39.43 31.804 39.43C31.804 39.43 33.146 43.862 34.856 46.688C38.196 52.204 39.75 52.344 40.884 51.75C42.54 50.89 42 45.026 42 45.026C42 45.026 42.074 42.508 41.21 41.386C40.544 40.518 39.27 40.056 38.714 39.984C38.264 39.926 39.016 39.138 39.974 38.688C41.254 38.118 42.996 37.972 46 38C48.338 38.022 49.012 38.162 49.924 38.372C52.682 39.008 52 40.686 52 46.578C52 48.466 51.74 51.12 53.164 52C53.778 52.38 55.882 52.844 59.626 46.764C61.404 43.88 62.818 39.096 62.818 39.096C62.818 39.096 63.11 38.57 63.564 38.31C64.028 38.044 64.014 38.05 64.65 38.05C65.286 38.05 71.664 38 73.064 38C74.462 38 75.774 37.984 76 38.804C76.324 39.982 74.968 44.018 71.532 48.398C65.886 55.586 65.26 54.914 69.946 59.07Z" fill="rgb(0,59,70)"/>
</svg>
